<svg height="1024" node-id="1" sillyvg="true" template-height="1024" template-width="1024" version="1.1" viewBox="0 0 1024 1024" width="1024" xmlns="http://www.w3.org/2000/svg" xmlns:xlink="http://www.w3.org/1999/xlink"><defs node-id="20"><linearGradient gradientUnits="userSpaceOnUse" id="paint0_linear_7307_7295" node-id="15" spreadMethod="pad" x1="-0.00000000013813" x2="1024" y1="-0.00000000013813" y2="1024"><stop offset="0" stop-color="#617af7"/><stop offset="0.520833" stop-color="#619df7"/><stop offset="1" stop-color="#93beff"/></linearGradient><filter height="671.521" id="filter0_d_7307_7295" node-id="6" width="671.577" x="158.971" y="235.922"><feFlood color-interpolation-filters="sRGB" flood-color="#000000" flood-opacity="0" result="BackgroundImageFix"></feFlood><feColorMatrix color-interpolation-filters="sRGB" in="SourceAlpha" result="hardAlpha" type="matrix" values="0 0 0 0 0 0 0 0 0 0 0 0 0 0 0 0 0 0 127 0"></feColorMatrix><feOffset color-interpolation-filters="sRGB" dx="0" dy="42.6667" in="hardAlpha" result="result3"></feOffset><feGaussianBlur color-interpolation-filters="sRGB" in="result3" result="result4" stdDeviation="21.3333 21.3333"></feGaussianBlur><feComposite color-interpolation-filters="sRGB" in="result4" in2="hardAlpha" operator="out" result="result5"></feComposite><feColorMatrix color-interpolation-filters="sRGB" in="result5" result="result6" type="matrix" values="0 0 0 0 0.178681 0 0 0 0 0.322317 0 0 0 0 0.691667 0 0 0 0.51 0"></feColorMatrix><feBlend color-interpolation-filters="sRGB" in="result6" in2="BackgroundImageFix" mode="normal" result="effect1_dropShadow_7307_7295"></feBlend><feBlend color-interpolation-filters="sRGB" in="SourceGraphic" in2="effect1_dropShadow_7307_7295" mode="normal" result="shape"></feBlend></filter></defs><path d="M 306.29 832.36 C 265.15 891.48 280.82 974.67 349.13 997.52 C 527.43 1057.18 732.06 1016.02 874.04 874.04 C 1073.99 674.09 1073.99 349.91 874.04 149.96 C 674.09 -49.99 349.91 -49.99 149.96 149.96 C 7.98 291.94 -33.18 496.57 26.48 674.87 C 49.33 743.17 132.52 758.85 191.64 717.71 L 372.58 591.78 L 432.22 651.42 L 306.29 832.36 Z" fill="url(#paint0_linear_7307_7295)" fill-rule="evenodd" node-id="49" stroke="none" target-height="1107.1671" target-width="1107.1722" target-x="-33.1823" target-y="-49.9871"/><g node-id="55"><path d="M 454.84 706.24 C 424.46 703.34 394.26 687.77 365.14 658.66 C 336.03 629.54 320.47 599.34 317.56 568.96 L 201.64 573.97 L 248.98 453.82 C 269.75 401.07 322.75 368.28 379.22 373.22 L 462.74 380.53 C 580.35 304.77 758.26 215.00 783.53 240.27 C 808.80 265.54 719.03 443.44 643.28 561.05 L 650.59 644.52 C 655.53 701.00 622.73 753.99 569.99 774.77 L 449.83 822.11 L 454.84 706.24 Z M 619.48 494.76 C 594.49 519.75 553.97 519.75 528.97 494.76 C 503.98 469.76 503.98 429.24 528.97 404.25 C 553.97 379.25 594.49 379.25 619.48 404.25 C 644.48 429.24 644.48 469.76 619.48 494.76 Z" fill="#ffffff" fill-rule="evenodd" filter="url(#filter0_d_7307_7295)" group-id="1" node-id="53" stroke="none" target-height="607.107" target-width="607.162" target-x="201.638" target-y="215"/></g></svg>